<svg width="41" height="41" viewBox="0 0 41 41" fill="none" xmlns="http://www.w3.org/2000/svg">
<mask id="mask0_122_189" style="mask-type:alpha" maskUnits="userSpaceOnUse" x="0" y="0" width="41" height="41">
<rect width="41" height="41" fill="#D9D9D9"/>
</mask>
<g mask="url(#mask0_122_189)">
<path d="M8.54167 35.875C7.60208 35.875 6.79774 35.5405 6.12865 34.8714C5.45955 34.2023 5.125 33.3979 5.125 32.4584V8.54169C5.125 7.60211 5.45955 6.79777 6.12865 6.12867C6.79774 5.45957 7.60208 5.12502 8.54167 5.12502H23.7885L20.3719 8.54169H8.54167V32.4584H32.4583V20.5854L35.875 17.1688V32.4584C35.875 33.3979 35.5405 34.2023 34.8714 34.8714C34.2023 35.5405 33.3979 35.875 32.4583 35.875H8.54167ZM15.375 25.625V18.3646L31.049 2.69065C31.3906 2.34898 31.775 2.09273 32.2021 1.9219C32.6292 1.75107 33.0562 1.66565 33.4833 1.66565C33.9389 1.66565 34.3731 1.75107 34.7859 1.9219C35.1988 2.09273 35.576 2.34898 35.9177 2.69065L38.3094 5.12502C38.6226 5.46669 38.8646 5.84395 39.0354 6.25679C39.2062 6.66964 39.2917 7.08961 39.2917 7.51669C39.2917 7.94377 39.2134 8.36374 39.0568 8.77659C38.9002 9.18943 38.651 9.56669 38.3094 9.90836L22.6354 25.625H15.375ZM18.7917 22.2084H21.1833L31.0917 12.3L29.8958 11.1042L28.6573 9.90836L18.7917 19.774V22.2084Z" fill="white"/>
</g>
</svg>
