<svg width="18" height="32" viewBox="0 0 18 32" fill="none" xmlns="http://www.w3.org/2000/svg">
<path d="M2.25 27.4286C3.49264 27.4286 4.5 28.4519 4.5 29.7143C4.5 30.9767 3.49264 32 2.25 32C1.00736 32 0 30.9767 0 29.7143C0 28.4519 1.00736 27.4286 2.25 27.4286Z" fill="currentColor"/>
<path d="M6.75 22.8571C7.99264 22.8571 9 23.8805 9 25.1429C9 26.4052 7.99264 27.4286 6.75 27.4286C5.50736 27.4286 4.5 26.4052 4.5 25.1429C4.5 23.8805 5.50736 22.8571 6.75 22.8571Z" fill="currentColor"/>
<path d="M11.25 18.2857C12.4926 18.2857 13.5 19.3091 13.5 20.5714C13.5 21.8338 12.4926 22.8571 11.25 22.8571C10.0074 22.8571 9 21.8338 9 20.5714C9 19.3091 10.0074 18.2857 11.25 18.2857Z" fill="currentColor"/>
<path d="M15.75 13.7143C16.9926 13.7143 18 14.7376 18 16C18 17.2624 16.9926 18.2857 15.75 18.2857C14.5074 18.2857 13.5 17.2624 13.5 16C13.5 14.7376 14.5074 13.7143 15.75 13.7143Z" fill="currentColor"/>
<path d="M11.25 9.14286C12.4926 9.14286 13.5 10.1662 13.5 11.4286C13.5 12.6909 12.4926 13.7143 11.25 13.7143C10.0074 13.7143 9 12.6909 9 11.4286C9 10.1662 10.0074 9.14286 11.25 9.14286Z" fill="currentColor"/>
<path d="M6.75 4.57143C7.99264 4.57143 9 5.59478 9 6.85714C9 8.11951 7.99264 9.14286 6.75 9.14286C5.50736 9.14286 4.5 8.11951 4.5 6.85714C4.5 5.59478 5.50736 4.57143 6.75 4.57143Z" fill="currentColor"/>
<path d="M2.25 0C3.49264 0 4.5 1.02335 4.5 2.28571C4.5 3.54808 3.49264 4.57143 2.25 4.57143C1.00736 4.57143 0 3.54808 0 2.28571C0 1.02335 1.00736 0 2.25 0Z" fill="currentColor"/>
</svg>
