<svg width="48" height="48" viewBox="0 0 48 48" fill="none" xmlns="http://www.w3.org/2000/svg">
<g clip-path="url(#clip0_286_55)">
<path d="M43.9996 6.00024H13.9996C12.6196 6.00024 11.5396 6.70024 10.8196 7.76024L-0.000366211 24.0002L10.8196 40.2202C11.5396 41.2802 12.6196 42.0002 13.9996 42.0002H43.9996C45.0605 42.0002 46.0779 41.5788 46.8281 40.8287C47.5782 40.0785 47.9996 39.0611 47.9996 38.0002V10.0002C47.9996 8.93938 47.5782 7.92196 46.8281 7.17182C46.0779 6.42167 45.0605 6.00024 43.9996 6.00024ZM37.9996 31.1802L35.1796 34.0002L27.9996 26.8202L20.8196 34.0002L17.9996 31.1802L25.1796 24.0002L17.9996 16.8202L20.8196 14.0002L27.9996 21.1802L35.1796 14.0002L37.9996 16.8202L30.8196 24.0002" fill="currentColor"/>
</g>
<defs>
<clipPath id="clip0_286_55">
<rect width="48" height="48" fill="white"/>
</clipPath>
</defs>
</svg>
