<svg width="54" height="54" viewBox="0 0 54 54" fill="none" xmlns="http://www.w3.org/2000/svg">
<mask id="mask0_1593_151" style="mask-type:alpha" maskUnits="userSpaceOnUse" x="0" y="0" width="54" height="54">
<rect width="54" height="54" fill="#D9D9D9"/>
</mask>
<g mask="url(#mask0_1593_151)">
<path d="M10.125 47.25C9.19688 47.25 8.40244 46.9194 7.74169 46.2583C7.08056 45.5976 6.75 44.8031 6.75 43.875V10.125C6.75 9.19688 7.08056 8.40225 7.74169 7.74113C8.40244 7.08038 9.19688 6.75 10.125 6.75H21.6562C21.8438 5.4375 22.4438 4.35938 23.4563 3.51562C24.4688 2.67188 25.65 2.25 27 2.25C28.35 2.25 29.5312 2.67188 30.5437 3.51562C31.5562 4.35938 32.1562 5.4375 32.3438 6.75H43.875C44.8031 6.75 45.5977 7.08038 46.2589 7.74113C46.9196 8.40225 47.25 9.19688 47.25 10.125V43.875C47.25 44.8031 46.9196 45.5976 46.2589 46.2583C45.5977 46.9194 44.8031 47.25 43.875 47.25H10.125ZM10.125 43.875H43.875V10.125H10.125V43.875ZM15.75 38.25H31.1062V34.875H15.75V38.25ZM15.75 28.6875H38.25V25.3125H15.75V28.6875ZM15.75 19.125H38.25V15.75H15.75V19.125ZM28.3781 8.57812C28.7719 8.18437 28.9688 7.725 28.9688 7.2C28.9688 6.675 28.7719 6.21563 28.3781 5.82187C27.9844 5.42812 27.525 5.23125 27 5.23125C26.475 5.23125 26.0156 5.42812 25.6219 5.82187C25.2281 6.21563 25.0312 6.675 25.0312 7.2C25.0312 7.725 25.2281 8.18437 25.6219 8.57812C26.0156 8.97188 26.475 9.16875 27 9.16875C27.525 9.16875 27.9844 8.97188 28.3781 8.57812Z" fill="white"/>
</g>
</svg>
