<svg width="48" height="48" viewBox="0 0 48 48" fill="none" xmlns="http://www.w3.org/2000/svg">
<path d="M38.0006 42.0029H16.0006V14.0029H38.0006V42.0029ZM38.0006 10.0029H16.0006C14.9397 10.0029 13.9223 10.4244 13.1722 11.1745C12.422 11.9246 12.0006 12.9421 12.0006 14.0029V42.0029C12.0006 43.0638 12.422 44.0812 13.1722 44.8314C13.9223 45.5815 14.9397 46.0029 16.0006 46.0029H38.0006C39.0615 46.0029 40.0789 45.5815 40.829 44.8314C41.5792 44.0812 42.0006 43.0638 42.0006 42.0029V14.0029C42.0006 12.9421 41.5792 11.9246 40.829 11.1745C40.0789 10.4244 39.0615 10.0029 38.0006 10.0029ZM32.0006 2.00293H8.00061C6.93974 2.00293 5.92233 2.42436 5.17218 3.1745C4.42204 3.92465 4.00061 4.94206 4.00061 6.00293V34.0029H8.00061V6.00293H32.0006V2.00293Z" fill="currentColor"/>
</svg>
