<svg width="48" height="48" viewBox="0 0 48 48" fill="none" xmlns="http://www.w3.org/2000/svg">
<path d="M37.9988 6.00244L25.9988 18.0024L29.9988 22.0024L43.9988 8.00244V6.00244H37.9988ZM23.9988 25.0024C23.7336 25.0024 23.4792 24.8971 23.2917 24.7095C23.1041 24.522 22.9988 24.2677 22.9988 24.0024C22.9988 23.7372 23.1041 23.4829 23.2917 23.2953C23.4792 23.1078 23.7336 23.0024 23.9988 23.0024C24.264 23.0024 24.5183 23.1078 24.7059 23.2953C24.8934 23.4829 24.9988 23.7372 24.9988 24.0024C24.9988 24.2677 24.8934 24.522 24.7059 24.7095C24.5183 24.8971 24.264 25.0024 23.9988 25.0024ZM11.9988 40.0024C10.9379 40.0024 9.9205 39.581 9.17035 38.8309C8.42021 38.0807 7.99878 37.0633 7.99878 36.0024C7.99878 33.7824 9.79878 32.0024 11.9988 32.0024C13.0596 32.0024 14.0771 32.4239 14.8272 33.174C15.5773 33.9242 15.9988 34.9416 15.9988 36.0024C15.9988 38.2224 14.1988 40.0024 11.9988 40.0024ZM11.9988 16.0024C10.9379 16.0024 9.9205 15.581 9.17035 14.8309C8.42021 14.0807 7.99878 13.0633 7.99878 12.0024C7.99878 9.78244 9.79878 8.00244 11.9988 8.00244C13.0596 8.00244 14.0771 8.42387 14.8272 9.17401C15.5773 9.92416 15.9988 10.9416 15.9988 12.0024C15.9988 14.2224 14.1988 16.0024 11.9988 16.0024ZM19.2788 15.2824C19.7388 14.2824 19.9988 13.1824 19.9988 12.0024C19.9988 9.88071 19.1559 7.84588 17.6556 6.34559C16.1553 4.8453 14.1205 4.00244 11.9988 4.00244C9.87705 4.00244 7.84222 4.8453 6.34192 6.34559C4.84163 7.84588 3.99878 9.88071 3.99878 12.0024C3.99878 14.1242 4.84163 16.159 6.34192 17.6593C7.84222 19.1596 9.87705 20.0024 11.9988 20.0024C13.1788 20.0024 14.2788 19.7424 15.2788 19.2824L19.9988 24.0024L15.2788 28.7224C14.2788 28.2624 13.1788 28.0024 11.9988 28.0024C9.87705 28.0024 7.84222 28.8453 6.34192 30.3456C4.84163 31.8459 3.99878 33.8807 3.99878 36.0024C3.99878 38.1242 4.84163 40.159 6.34192 41.6593C7.84222 43.1596 9.87705 44.0024 11.9988 44.0024C14.1205 44.0024 16.1553 43.1596 17.6556 41.6593C19.1559 40.159 19.9988 38.1242 19.9988 36.0024C19.9988 34.8224 19.7388 33.7224 19.2788 32.7224L23.9988 28.0024L37.9988 42.0024H43.9988V40.0024L19.2788 15.2824Z" fill="currentColor"/>
</svg>
