<svg width="54" height="54" viewBox="0 0 54 54" fill="none" xmlns="http://www.w3.org/2000/svg">
<mask id="mask0_1593_157" style="mask-type:alpha" maskUnits="userSpaceOnUse" x="0" y="0" width="54" height="54">
<rect width="54" height="54" fill="#D9D9D9"/>
</mask>
<g mask="url(#mask0_1593_157)">
<path d="M12.9324 45C11.8483 45 10.9219 44.6139 10.1531 43.8418C9.38437 43.0697 9 42.1416 9 41.0574C9 39.9733 9.38606 39.0469 10.1582 38.2781C10.9303 37.5094 11.8584 37.125 12.9426 37.125C14.0267 37.125 14.9531 37.5111 15.7219 38.2832C16.4906 39.0553 16.875 39.9834 16.875 41.0676C16.875 42.1517 16.4889 43.0781 15.7168 43.8469C14.9447 44.6156 14.0166 45 12.9324 45ZM31.7762 45C30.6921 45 29.7656 44.6139 28.9969 43.8418C28.2281 43.0697 27.8438 42.1416 27.8438 41.0574C27.8438 39.9733 28.2298 39.0469 29.0019 38.2781C29.7741 37.5094 30.7022 37.125 31.7863 37.125C32.8704 37.125 33.7969 37.5111 34.5656 38.2832C35.3344 39.0553 35.7188 39.9834 35.7188 41.0676C35.7188 42.1517 35.3327 43.0781 34.5606 43.8469C33.7884 44.6156 32.8603 45 31.7762 45ZM22.2137 35.7188C21.1296 35.7188 20.2031 35.3327 19.4344 34.5606C18.6656 33.7884 18.2812 32.8603 18.2812 31.7762C18.2812 30.6921 18.6673 29.7656 19.4394 28.9969C20.2116 28.2281 21.1397 27.8438 22.2238 27.8438C23.3079 27.8438 24.2344 28.2298 25.0031 29.0019C25.7719 29.7741 26.1562 30.7022 26.1562 31.7863C26.1562 32.8704 25.7702 33.7969 24.9981 34.5656C24.2259 35.3344 23.2978 35.7188 22.2137 35.7188ZM41.0574 35.7188C39.9733 35.7188 39.0469 35.3327 38.2781 34.5606C37.5094 33.7884 37.125 32.8603 37.125 31.7762C37.125 30.6921 37.5111 29.7656 38.2832 28.9969C39.0553 28.2281 39.9834 27.8438 41.0676 27.8438C42.1517 27.8438 43.0781 28.2298 43.8469 29.0019C44.6156 29.7741 45 30.7022 45 31.7863C45 32.8704 44.6139 33.7969 43.8418 34.5656C43.0697 35.3344 42.1416 35.7188 41.0574 35.7188ZM12.9324 26.1562C11.8483 26.1562 10.9219 25.7702 10.1531 24.9981C9.38437 24.2259 9 23.2978 9 22.2137C9 21.1296 9.38606 20.2031 10.1582 19.4344C10.9303 18.6656 11.8584 18.2812 12.9426 18.2812C14.0267 18.2812 14.9531 18.6673 15.7219 19.4394C16.4906 20.2116 16.875 21.1397 16.875 22.2238C16.875 23.3079 16.4889 24.2344 15.7168 25.0031C14.9447 25.7719 14.0166 26.1562 12.9324 26.1562ZM31.7762 26.1562C30.6921 26.1562 29.7656 25.7702 28.9969 24.9981C28.2281 24.2259 27.8438 23.2978 27.8438 22.2137C27.8438 21.1296 28.2298 20.2031 29.0019 19.4344C29.7741 18.6656 30.7022 18.2812 31.7863 18.2812C32.8704 18.2812 33.7969 18.6673 34.5656 19.4394C35.3344 20.2116 35.7188 21.1397 35.7188 22.2238C35.7188 23.3079 35.3327 24.2344 34.5606 25.0031C33.7884 25.7719 32.8603 26.1562 31.7762 26.1562ZM22.2137 16.875C21.1296 16.875 20.2031 16.4889 19.4344 15.7168C18.6656 14.9447 18.2812 14.0166 18.2812 12.9324C18.2812 11.8483 18.6673 10.9219 19.4394 10.1531C20.2116 9.38437 21.1397 9 22.2238 9C23.3079 9 24.2344 9.38606 25.0031 10.1582C25.7719 10.9303 26.1562 11.8584 26.1562 12.9426C26.1562 14.0267 25.7702 14.9531 24.9981 15.7219C24.2259 16.4906 23.2978 16.875 22.2137 16.875ZM41.0574 16.875C39.9733 16.875 39.0469 16.4889 38.2781 15.7168C37.5094 14.9447 37.125 14.0166 37.125 12.9324C37.125 11.8483 37.5111 10.9219 38.2832 10.1531C39.0553 9.38437 39.9834 9 41.0676 9C42.1517 9 43.0781 9.38606 43.8469 10.1582C44.6156 10.9303 45 11.8584 45 12.9426C45 14.0267 44.6139 14.9531 43.8418 15.7219C43.0697 16.4906 42.1416 16.875 41.0574 16.875Z" fill="currentColor"/>
</g>
</svg>
