<svg width="48" height="48" viewBox="0 0 48 48" fill="none" xmlns="http://www.w3.org/2000/svg">
<path d="M7.99976 6H39.9998C41.0606 6 42.078 6.42143 42.8282 7.17157C43.5783 7.92172 43.9998 8.93913 43.9998 10V38C43.9998 39.0609 43.5783 40.0783 42.8282 40.8284C42.078 41.5786 41.0606 42 39.9998 42H7.99976C6.93889 42 5.92147 41.5786 5.17133 40.8284C4.42118 40.0783 3.99976 39.0609 3.99976 38V10C3.99976 8.93913 4.42118 7.92172 5.17133 7.17157C5.92147 6.42143 6.93889 6 7.99976 6V6ZM7.99976 10V26H39.9998V10H7.99976ZM7.99976 38H21.9998V30H7.99976V38ZM39.9998 38V30H25.9998V38H39.9998Z" fill="white"/>
</svg>
