<svg width="40" height="40" viewBox="0 0 40 40" fill="none" xmlns="http://www.w3.org/2000/svg">
<mask id="mask0_1593_141" style="mask-type:alpha" maskUnits="userSpaceOnUse" x="0" y="0" width="40" height="40">
<rect width="40" height="40" fill="#D9D9D9"/>
</mask>
<g mask="url(#mask0_1593_141)">
<path d="M13.7221 35V32.2221H17.2221V28.3333H6.11123C5.36123 28.3333 4.71067 28.0579 4.15956 27.5071C3.60873 26.956 3.33331 26.3054 3.33331 25.5554V7.77792C3.33331 7.02792 3.60873 6.37736 4.15956 5.82625C4.71067 5.27542 5.36123 5 6.11123 5H33.8887C34.6387 5 35.2893 5.27542 35.8404 5.82625C36.3912 6.37736 36.6666 7.02792 36.6666 7.77792V25.5554C36.6666 26.3054 36.3912 26.956 35.8404 27.5071C35.2893 28.0579 34.6387 28.3333 33.8887 28.3333H22.7779V32.2221H26.2779V35H13.7221ZM6.11123 25.5554H33.8887V7.77792H6.11123V25.5554Z" fill="white"/>
</g>
</svg>
