<svg width="40" height="40" viewBox="0 0 40 40" fill="none" xmlns="http://www.w3.org/2000/svg">
<mask id="mask0_1593_132" style="mask-type:alpha" maskUnits="userSpaceOnUse" x="0" y="0" width="40" height="40">
<rect width="40" height="40" fill="#D9D9D9"/>
</mask>
<g mask="url(#mask0_1593_132)">
<path d="M10.0833 36.6663V21.2218C8.52778 20.8145 7.29167 20.0368 6.375 18.8884C5.45833 17.7404 5 16.4163 5 14.9163V3.33301H7.77792V13.5276H10.0833V3.33301H12.8613V13.5276H15.1946V3.33301H17.9721V14.9163C17.9721 16.435 17.5138 17.7637 16.5971 18.9026C15.6804 20.0415 14.4351 20.8145 12.8613 21.2218V36.6663H10.0833ZM27.1112 36.6663V20.5693C25.5557 20.0506 24.3149 19.0205 23.3888 17.4788C22.4629 15.9372 22 14.134 22 12.0693C22 9.63398 22.6343 7.56912 23.9029 5.87467C25.1712 4.18023 26.7036 3.33301 28.5 3.33301C30.2964 3.33301 31.8288 4.18259 33.0971 5.88176C34.3657 7.58065 35 9.64773 35 12.083C35 14.1477 34.5371 15.9487 33.6112 17.4859C32.6851 19.0229 31.4443 20.0598 29.8888 20.5968V36.6663H27.1112Z" fill="white"/>
</g>
</svg>
