<svg width="40" height="40" viewBox="0 0 40 40" fill="none" xmlns="http://www.w3.org/2000/svg">
<mask id="mask0_1593_144" style="mask-type:alpha" maskUnits="userSpaceOnUse" x="0" y="0" width="40" height="40">
<rect width="40" height="40" fill="#D9D9D9"/>
</mask>
<g mask="url(#mask0_1593_144)">
<path d="M9.52794 3.69499H12.3888L17.8196 18.1392H15.0834L13.9167 14.8337H8.00002L6.83336 18.1392H4.09711L9.52794 3.69499ZM9.54169 20.1671C10.7084 20.1671 11.6945 20.5698 12.5 21.3754C13.3056 22.181 13.7084 23.1671 13.7084 24.3337C13.7084 24.9818 13.5718 25.5905 13.2988 26.16C13.0254 26.7294 12.6388 27.2179 12.1388 27.6254L11.4304 28.2087L13.0417 29.82L15.8054 27.0975L17.7917 29.0837L15.0696 31.8058L17.4029 34.1808L15.4167 36.1254L13.0834 33.7921L11.5279 35.3475C11.0741 35.8014 10.5741 36.1555 10.0279 36.41C9.48155 36.6647 8.89822 36.7921 8.27794 36.7921C7.12961 36.7921 6.15738 36.4008 5.36127 35.6183C4.56488 34.8361 4.16669 33.8708 4.16669 32.7225C4.16669 32.1114 4.28711 31.5304 4.52794 30.9796C4.7685 30.4287 5.1203 29.9589 5.58336 29.57L7.36127 28.07L6.58336 27.2921C6.19447 26.9032 5.88891 26.4542 5.66669 25.945C5.44447 25.4355 5.33336 24.903 5.33336 24.3475C5.33336 23.1808 5.74308 22.1925 6.56252 21.3825C7.38197 20.5722 8.37502 20.1671 9.54169 20.1671ZM9.31961 30.0283L7.52794 31.5283C7.35183 31.6855 7.21752 31.8637 7.12502 32.0629C7.03252 32.2621 6.98627 32.4819 6.98627 32.7225C6.98627 33.0744 7.11822 33.3708 7.38211 33.6117C7.646 33.8522 7.95377 33.9725 8.30544 33.9725C8.54627 33.9725 8.76155 33.9147 8.95127 33.7992C9.14127 33.6833 9.32419 33.5375 9.50002 33.3617L11.0971 31.8058L9.31961 30.0283ZM9.50002 22.945C9.11114 22.945 8.78475 23.0792 8.52086 23.3475C8.25697 23.6161 8.12502 23.9448 8.12502 24.3337C8.12502 24.519 8.16211 24.6972 8.23627 24.8683C8.31016 25.0397 8.40738 25.1855 8.52794 25.3058L9.48627 26.2504L10.1113 25.7087C10.3427 25.5329 10.5347 25.3315 10.6875 25.1046C10.8403 24.8776 10.9167 24.6253 10.9167 24.3475C10.9167 23.9586 10.7778 23.6276 10.5 23.3546C10.2222 23.0815 9.88891 22.945 9.50002 22.945ZM10.875 6.63916L8.84711 12.445H13.0696L11.0417 6.63916H10.875ZM29.2363 2.40332C29.4213 2.74582 29.581 3.09763 29.7154 3.45874C29.8496 3.81985 29.9629 4.18554 30.0554 4.55582L28.0971 5.1254H36.6667V7.90332H33.6529C33.3474 8.91249 32.9052 9.85457 32.3263 10.7296C31.7477 11.6046 31.1111 12.4264 30.4167 13.195C31.2036 13.7505 32.0416 14.2158 32.9304 14.5908C33.8193 14.9658 34.7314 15.2644 35.6667 15.4867L35.0138 18.1392C33.801 17.8336 32.6367 17.4308 31.5209 16.9308C30.405 16.4308 29.3518 15.7967 28.3613 15.0283C27.3704 15.7875 26.3125 16.4194 25.1875 16.9242C24.0625 17.4286 22.8935 17.8336 21.6804 18.1392L21.0696 15.4867C21.9954 15.2644 22.9028 14.9611 23.7917 14.5767C24.6806 14.1925 25.5185 13.7226 26.3054 13.1671C25.611 12.3985 24.9791 11.5814 24.4096 10.7158C23.8402 9.84999 23.3981 8.91249 23.0834 7.90332H20V5.1254H27.4446C27.3613 4.7829 27.264 4.43804 27.1529 4.09082C27.0418 3.7436 26.9168 3.41249 26.7779 3.09749L29.2363 2.40332ZM33.6804 20.9587L35.6667 22.9033L22.6804 35.8892L20.6946 33.945L33.6804 20.9587ZM25.7429 22.6742C26.1735 23.1047 26.3888 23.6301 26.3888 24.2504C26.3888 24.8707 26.1735 25.3961 25.7429 25.8267C25.3124 26.2572 24.787 26.4725 24.1667 26.4725C23.5464 26.4725 23.021 26.2572 22.5904 25.8267C22.1599 25.3961 21.9446 24.8707 21.9446 24.2504C21.9446 23.6301 22.1599 23.1047 22.5904 22.6742C23.021 22.2436 23.5464 22.0283 24.1667 22.0283C24.787 22.0283 25.3124 22.2436 25.7429 22.6742ZM26.0696 7.90332C26.2918 8.57915 26.5974 9.21332 26.9863 9.80582C27.3752 10.3986 27.8427 10.9311 28.3888 11.4033C28.9166 10.9311 29.3703 10.394 29.75 9.79207C30.1297 9.19013 30.4353 8.56054 30.6667 7.90332H26.0696ZM34.0763 31.0075C34.5068 31.438 34.7221 31.9635 34.7221 32.5837C34.7221 33.204 34.5068 33.7294 34.0763 34.16C33.6457 34.5905 33.1203 34.8058 32.5 34.8058C31.8797 34.8058 31.3543 34.5905 30.9238 34.16C30.4932 33.7294 30.2779 33.204 30.2779 32.5837C30.2779 31.9635 30.4932 31.438 30.9238 31.0075C31.3543 30.5769 31.8797 30.3617 32.5 30.3617C33.1203 30.3617 33.6457 30.5769 34.0763 31.0075Z" fill="currentColor"/>
</g>
</svg>
