<svg width="40" height="40" viewBox="0 0 40 40" fill="none" xmlns="http://www.w3.org/2000/svg">
<mask id="mask0_1593_138" style="mask-type:alpha" maskUnits="userSpaceOnUse" x="0" y="0" width="40" height="40">
<rect width="40" height="40" fill="#D9D9D9"/>
</mask>
<g mask="url(#mask0_1593_138)">
<path d="M13.4862 35.3538C11.4585 34.4788 9.6922 33.289 8.18748 31.7843C6.68276 30.2798 5.49762 28.509 4.63206 26.4718C3.76623 24.4348 3.33331 22.2566 3.33331 19.9372C3.33331 17.6177 3.76623 15.4511 4.63206 13.4372C5.49762 11.4233 6.68276 9.66398 8.18748 8.15926C9.6922 6.65481 11.4585 5.47426 13.4862 4.61759C15.514 3.7612 17.6876 3.33301 20.0071 3.33301C22.3265 3.33301 24.4978 3.7612 26.5208 4.61759C28.5439 5.47426 30.3078 6.65481 31.8125 8.15926C33.3172 9.66398 34.5023 11.4233 35.3679 13.4372C36.2337 15.4511 36.6666 17.6177 36.6666 19.9372C36.6666 22.2566 36.2337 24.4348 35.3679 26.4718C34.5023 28.509 33.3172 30.2798 31.8125 31.7843C30.3078 33.289 28.5439 34.4788 26.5208 35.3538C24.4978 36.2288 22.3265 36.6663 20.0071 36.6663C17.6876 36.6663 15.514 36.2288 13.4862 35.3538ZM20 33.9163C20.8889 32.9163 21.6389 31.8052 22.25 30.583C22.8611 29.3608 23.3611 27.9534 23.75 26.3609H16.2779C16.6482 27.8793 17.1389 29.2634 17.75 30.5134C18.3611 31.7634 19.1111 32.8977 20 33.9163ZM16.1946 33.3609C15.5648 32.3515 15.0208 31.2751 14.5625 30.1318C14.1041 28.9881 13.7222 27.7312 13.4166 26.3609H7.61123C8.58345 28.1387 9.73387 29.5738 11.0625 30.6663C12.3911 31.7588 14.1018 32.657 16.1946 33.3609ZM23.8333 33.333C25.6853 32.7405 27.345 31.847 28.8125 30.6526C30.28 29.4581 31.4721 28.0276 32.3887 26.3609H26.6112C26.2871 27.7126 25.9004 28.9602 25.4512 30.1038C25.0023 31.2475 24.463 32.3238 23.8333 33.333ZM6.58331 23.583H12.8887C12.8054 22.8977 12.7522 22.2658 12.7291 21.6872C12.7061 21.1086 12.6946 20.5276 12.6946 19.9443C12.6946 19.2868 12.7107 18.6872 12.7429 18.1455C12.7754 17.6038 12.8333 17.0181 12.9166 16.3884H6.58331C6.40748 17.0181 6.28484 17.5993 6.2154 18.1318C6.14595 18.664 6.11123 19.2681 6.11123 19.9443C6.11123 20.6201 6.14595 21.2381 6.2154 21.7984C6.28484 22.3584 6.40748 22.9533 6.58331 23.583ZM15.7221 23.583H24.3054C24.4073 22.8238 24.4746 22.1734 24.5071 21.6318C24.5393 21.0901 24.5554 20.5276 24.5554 19.9443C24.5554 19.3793 24.5393 18.8352 24.5071 18.3122C24.4746 17.7891 24.4073 17.1479 24.3054 16.3884H15.7221C15.6204 17.1479 15.5533 17.7891 15.5208 18.3122C15.4883 18.8352 15.4721 19.3793 15.4721 19.9443C15.4721 20.5276 15.4883 21.0901 15.5208 21.6318C15.5533 22.1734 15.6204 22.8238 15.7221 23.583ZM27.0833 23.583H33.4167C33.5925 22.9533 33.7151 22.3584 33.7846 21.7984C33.854 21.2381 33.8887 20.6201 33.8887 19.9443C33.8887 19.2681 33.854 18.664 33.7846 18.1318C33.7151 17.5993 33.5925 17.0181 33.4167 16.3884H27.1112C27.1946 17.2218 27.2523 17.9001 27.2846 18.4234C27.3171 18.9465 27.3333 19.4534 27.3333 19.9443C27.3333 20.5459 27.3125 21.1176 27.2708 21.6593C27.2291 22.2009 27.1666 22.8422 27.0833 23.583ZM26.5833 13.6109H32.3887C31.5093 11.8701 30.3357 10.4025 28.8679 9.20801C27.4004 8.01356 25.7129 7.15704 23.8054 6.63843C24.4351 7.62926 24.9746 8.68718 25.4237 9.81218C25.8726 10.9372 26.2591 12.2034 26.5833 13.6109ZM16.2779 13.6109H23.7779C23.4629 12.222 22.9768 10.8887 22.3196 9.61092C21.6621 8.33315 20.8889 7.17565 20 6.13843C19.1666 6.97176 18.4583 7.97648 17.875 9.15259C17.2916 10.3284 16.7593 11.8145 16.2779 13.6109ZM7.61123 13.6109H13.4446C13.7315 12.259 14.0948 11.0251 14.5346 9.90926C14.9746 8.7937 15.5186 7.71273 16.1666 6.66634C14.2591 7.18495 12.5855 8.03218 11.1458 9.20801C9.70609 10.3838 8.5279 11.8515 7.61123 13.6109Z" fill="white"/>
</g>
</svg>
