<svg width="40" height="40" viewBox="0 0 40 40" fill="none" xmlns="http://www.w3.org/2000/svg">
<mask id="mask0_1593_123" style="mask-type:alpha" maskUnits="userSpaceOnUse" x="0" y="0" width="40" height="40">
<rect width="40" height="40" fill="#D9D9D9"/>
</mask>
<g mask="url(#mask0_1593_123)">
<path d="M26 17.9718C26.6575 17.9718 27.2107 17.7473 27.6596 17.2984C28.1088 16.8493 28.3333 16.2959 28.3333 15.6384C28.3333 14.9812 28.1088 14.428 27.6596 13.9788C27.2107 13.5297 26.6575 13.3051 26 13.3051C25.3425 13.3051 24.7893 13.5297 24.3404 13.9788C23.8913 14.428 23.6667 14.9812 23.6667 15.6384C23.6667 16.2959 23.8913 16.8493 24.3404 17.2984C24.7893 17.7473 25.3425 17.9718 26 17.9718ZM14 17.9718C14.6575 17.9718 15.2107 17.7473 15.6596 17.2984C16.1088 16.8493 16.3333 16.2959 16.3333 15.6384C16.3333 14.9812 16.1088 14.428 15.6596 13.9788C15.2107 13.5297 14.6575 13.3051 14 13.3051C13.3425 13.3051 12.7893 13.5297 12.3404 13.9788C11.8913 14.428 11.6667 14.9812 11.6667 15.6384C11.6667 16.2959 11.8913 16.8493 12.3404 17.2984C12.7893 17.7473 13.3425 17.9718 14 17.9718ZM25.0904 27.6176C26.6321 26.6037 27.7502 25.2404 28.4446 23.5276H11.5554C12.2685 25.2404 13.3913 26.6037 14.9238 27.6176C16.456 28.6315 18.1481 29.1384 20 29.1384C21.852 29.1384 23.5488 28.6315 25.0904 27.6176ZM13.5 35.3538C11.4722 34.4788 9.70834 33.2913 8.20834 31.7913C6.70834 30.2913 5.52084 28.5275 4.64584 26.4997C3.77084 24.4719 3.33334 22.3052 3.33334 19.9997C3.33334 17.6941 3.77084 15.5275 4.64584 13.4997C5.52084 11.4719 6.70834 9.70801 8.20834 8.20801C9.70834 6.70801 11.4722 5.52051 13.5 4.64551C15.5278 3.77051 17.6945 3.33301 20 3.33301C22.3056 3.33301 24.4722 3.77051 26.5 4.64551C28.5278 5.52051 30.2917 6.70801 31.7917 8.20801C33.2917 9.70801 34.4792 11.4719 35.3542 13.4997C36.2292 15.5275 36.6667 17.6941 36.6667 19.9997C36.6667 22.3052 36.2292 24.4719 35.3542 26.4997C34.4792 28.5275 33.2917 30.2913 31.7917 31.7913C30.2917 33.2913 28.5278 34.4788 26.5 35.3538C24.4722 36.2288 22.3056 36.6663 20 36.6663C17.6945 36.6663 15.5278 36.2288 13.5 35.3538ZM29.8471 29.8468C32.5415 27.1523 33.8888 23.87 33.8888 19.9997C33.8888 16.1294 32.5415 12.847 29.8471 10.1526C27.1527 7.45815 23.8703 6.11092 20 6.11092C16.1297 6.11092 12.8474 7.45815 10.1529 10.1526C7.45848 12.847 6.11126 16.1294 6.11126 19.9997C6.11126 23.87 7.45848 27.1523 10.1529 29.8468C12.8474 32.5412 16.1297 33.8884 20 33.8884C23.8703 33.8884 27.1527 32.5412 29.8471 29.8468Z" fill="currentColor"/>
</g>
</svg>
