<svg width="40" height="40" viewBox="0 0 40 40" fill="none" xmlns="http://www.w3.org/2000/svg">
<mask id="mask0_1593_126" style="mask-type:alpha" maskUnits="userSpaceOnUse" x="0" y="0" width="40" height="40">
<rect width="40" height="40" fill="#D9D9D9"/>
</mask>
<g mask="url(#mask0_1593_126)">
<path d="M15.4304 18.1527C14.2177 16.9396 13.6113 15.4164 13.6113 13.5831C13.6113 11.7498 14.2177 10.2266 15.4304 9.0135C16.6435 7.80073 18.1667 7.19434 20 7.19434C21.8334 7.19434 23.3565 7.80073 24.5696 9.0135C25.7824 10.2266 26.3888 11.7498 26.3888 13.5831C26.3888 15.4164 25.7824 16.9396 24.5696 18.1527C23.3565 19.3654 21.8334 19.9718 20 19.9718C18.1667 19.9718 16.6435 19.3654 15.4304 18.1527ZM6.66669 33.3331V29.1664C6.66669 28.1478 6.92363 27.2566 7.43752 26.4927C7.95141 25.7288 8.62044 25.1478 9.4446 24.7498C11.2593 23.9073 13.0324 23.2753 14.7638 22.8539C16.4954 22.4325 18.2409 22.2218 20 22.2218C21.7592 22.2218 23.4999 22.4371 25.2221 22.8677C26.9443 23.2982 28.7129 23.9256 30.5279 24.7498C31.3704 25.1478 32.0486 25.7288 32.5625 26.4927C33.0764 27.2566 33.3334 28.1478 33.3334 29.1664V33.3331H6.66669ZM9.4446 30.5552H30.5554V29.1664C30.5554 28.7684 30.4421 28.3934 30.2154 28.0414C29.9885 27.6895 29.7038 27.4256 29.3613 27.2498C27.676 26.4256 26.0879 25.8446 24.5971 25.5068C23.1066 25.1688 21.5742 24.9998 20 24.9998C18.4259 24.9998 16.8842 25.1688 15.375 25.5068C13.8659 25.8446 12.2779 26.4256 10.6113 27.2498C10.2685 27.4256 9.98835 27.6895 9.77085 28.0414C9.55335 28.3934 9.4446 28.7684 9.4446 29.1664V30.5552ZM22.5763 16.1593C23.2663 15.4696 23.6113 14.6109 23.6113 13.5831C23.6113 12.5553 23.2663 11.6966 22.5763 11.0068C21.8865 10.3168 21.0278 9.97184 20 9.97184C18.9722 9.97184 18.1135 10.3168 17.4238 11.0068C16.7338 11.6966 16.3888 12.5553 16.3888 13.5831C16.3888 14.6109 16.7338 15.4696 17.4238 16.1593C18.1135 16.8493 18.9722 17.1943 20 17.1943C21.0278 17.1943 21.8865 16.8493 22.5763 16.1593Z" fill="currentColor"/>
</g>
</svg>
