<svg width="40" height="40" viewBox="0 0 40 40" fill="none" xmlns="http://www.w3.org/2000/svg">
<mask id="mask0_1593_135" style="mask-type:alpha" maskUnits="userSpaceOnUse" x="0" y="0" width="40" height="40">
<rect width="40" height="40" fill="#D9D9D9"/>
</mask>
<g mask="url(#mask0_1593_135)">
<path d="M16.4304 35.0967L12.4167 27.5692L4.86127 23.5275L7.48627 20.9163L13.6113 22.0133L18.4167 17.2358L4.93043 11.4996L8.0971 8.30501L24.4446 11.1663L29.8613 5.7496C30.4629 5.14765 31.1943 4.84668 32.0554 4.84668C32.9165 4.84668 33.6481 5.14765 34.25 5.7496C34.852 6.35154 35.1529 7.08071 35.1529 7.9371C35.1529 8.79348 34.852 9.52265 34.25 10.1246L28.8196 15.555L31.6804 31.8883L28.5 35.0692L22.75 21.5829L17.9721 26.3883L19.0554 32.4717L16.4304 35.0967Z" fill="currentColor"/>
</g>
</svg>
