<svg width="41" height="41" viewBox="0 0 41 41" fill="none" xmlns="http://www.w3.org/2000/svg">
<mask id="mask0_1430_118" style="mask-type:alpha" maskUnits="userSpaceOnUse" x="0" y="0" width="41" height="41">
<rect width="41" height="41" rx="4" fill="#D9D9D9"/>
</mask>
<g mask="url(#mask0_1430_118)">
<path d="M20.5 35.875C19.7138 35.875 19.0765 35.2377 19.0765 34.4515V25.9235C19.0765 23.7143 17.2857 21.9235 15.0765 21.9235H6.54847C5.76231 21.9235 5.125 21.2862 5.125 20.5C5.125 19.7138 5.76231 19.0765 6.54847 19.0765H15.0765C17.2857 19.0765 19.0765 17.2857 19.0765 15.0765V6.54847C19.0765 5.76231 19.7138 5.125 20.5 5.125C21.2862 5.125 21.9235 5.76231 21.9235 6.54847V15.0765C21.9235 17.2857 23.7143 19.0765 25.9235 19.0765H34.4515C35.2377 19.0765 35.875 19.7138 35.875 20.5C35.875 21.2862 35.2377 21.9235 34.4515 21.9235H25.9235C23.7143 21.9235 21.9235 23.7143 21.9235 25.9235V34.4515C21.9235 35.2377 21.2862 35.875 20.5 35.875Z" fill="currentColor"/>
</g>
</svg>
