<svg width="140" height="160" viewBox="0 0 140 160" fill="none" xmlns="http://www.w3.org/2000/svg">
<path d="M72 1C75.9069 1 79.7368 3.02705 83.3311 6.92578C86.9262 10.8255 90.2099 16.5233 92.9883 23.6484C98.5426 37.8926 102 57.6387 102 79.5C102 101.361 98.5426 121.107 92.9883 135.352C90.2099 142.477 86.9262 148.175 83.3311 152.074C79.7368 155.973 75.9069 158 72 158C68.0931 158 64.2632 155.973 60.6689 152.074C57.0738 148.175 53.7901 142.477 51.0117 135.352C45.4574 121.107 42 101.361 42 79.5C42 57.6387 45.4574 37.8926 51.0117 23.6484C53.7901 16.5233 57.0738 10.8255 60.6689 6.92578C64.2632 3.02705 68.0931 1 72 1Z" stroke="#BBBBBB" stroke-width="2"/>
<path d="M109 1C112.907 1 116.737 3.02705 120.331 6.92578C123.926 10.8255 127.21 16.5233 129.988 23.6484C135.543 37.8926 139 57.6387 139 79.5C139 101.361 135.543 121.107 129.988 135.352C127.21 142.477 123.926 148.175 120.331 152.074C116.737 155.973 112.907 158 109 158C105.093 158 101.263 155.973 97.6689 152.074C94.0738 148.175 90.7901 142.477 88.0117 135.352C82.4574 121.107 79 101.361 79 79.5C79 57.6387 82.4574 37.8926 88.0117 23.6484C90.7901 16.5233 94.0738 10.8255 97.6689 6.92578C101.263 3.02705 105.093 1 109 1Z" stroke="#BBBBBB" stroke-width="2"/>
<path d="M31 2C34.9069 2 38.7368 4.02705 42.3311 7.92578C45.9262 11.8255 49.2099 17.5233 51.9883 24.6484C57.5426 38.8926 61 58.6387 61 80.5C61 102.361 57.5426 122.107 51.9883 136.352C49.2099 143.477 45.9262 149.175 42.3311 153.074C38.7368 156.973 34.9069 159 31 159C27.0931 159 23.2632 156.973 19.6689 153.074C16.0738 149.175 12.7901 143.477 10.0117 136.352C4.45738 122.107 1 102.361 1 80.5C1 58.6387 4.45738 38.8926 10.0117 24.6484C12.7901 17.5233 16.0738 11.8255 19.6689 7.92578C23.2632 4.02705 27.0931 2 31 2Z" stroke="#BBBBBB" stroke-width="2"/>
</svg>
