<svg width="168" height="156" viewBox="0 0 168 156" fill="none" xmlns="http://www.w3.org/2000/svg">
<path d="M36.8246 6.09375L47.3744 0L77.8346 54.3961C81.7416 61.373 91.0807 62.6494 96.649 56.9672L122.815 30.2656L131.374 38.3906L119.315 51.0047C111.934 58.7251 117.294 71.7031 127.863 71.7031H168V83.4844H114.978C105.797 83.4844 100.05 93.6146 104.621 101.74L131.374 149.297L121.223 156L90.7845 101.643C86.8707 94.6538 77.5097 93.3875 71.947 99.0949L46.1801 125.531L37.6209 117L49.9263 104.21C57.3437 96.501 51.9916 83.4844 41.404 83.4844H0V71.7031H53.1891C62.377 71.7031 68.124 61.5587 63.539 53.4337L36.8246 6.09375Z" fill="#000000"/>
</svg>
