<svg width="164" height="130" viewBox="0 0 164 130" fill="none" xmlns="http://www.w3.org/2000/svg">
<g clip-path="url(#clip0_1533_97)">
<path d="M0 73.5849H0.604004C0.671004 73.5849 33.661 73.6049 46.499 93.2075C59.346 112.825 58.738 129.991 58.738 130H73.4245C73.4248 129.991 74.0336 114.665 64.8573 97.5C55.693 80.3572 46.528 73.6061 46.499 73.5849H164V56.4151H45.896C45.896 56.4151 55.075 49.6698 64.2537 32.5C73.4328 15.3302 72.8209 0 72.8209 0H58.134C58.134 0 58.746 17.1698 45.896 36.7924C33.045 56.4151 0 56.4151 0 56.4151V73.5849Z" fill="white"/>
</g>
<defs>
<clipPath id="clip0_1533_97">
<rect width="164" height="130" fill="white" transform="matrix(-1 0 0 1 164 0)"/>
</clipPath>
</defs>
</svg>
