<svg width="48" height="48" viewBox="0 0 48 48" fill="none" xmlns="http://www.w3.org/2000/svg">
<mask id="mask0_216_39" style="mask-type:alpha" maskUnits="userSpaceOnUse" x="0" y="0" width="48" height="48">
<rect width="48" height="48" fill="#D9D9D9"/>
</mask>
<g mask="url(#mask0_216_39)">
<path d="M12.6345 39C9.98583 39 7.718 38.0547 5.831 36.164C3.94367 34.2733 3 32.0007 3 29.346C3 26.8743 3.82817 24.711 5.4845 22.856C7.14117 21.0007 9.17967 19.9563 11.6 19.723C12.113 16.618 13.5418 14.0597 15.8865 12.048C18.2315 10.0367 20.963 9.03101 24.081 9.03101C27.6073 9.03101 30.5677 10.2922 32.962 12.8145C35.3567 15.3372 36.554 18.372 36.554 21.919V23.8115H37.169C39.3513 23.7322 41.202 24.4207 42.721 25.877C44.2403 27.3333 45 29.173 45 31.396C45 33.478 44.2597 35.2658 42.779 36.7595C41.298 38.2532 39.5165 39 37.4345 39H25.75C24.9657 39 24.2888 38.7153 23.7195 38.146C23.1502 37.5767 22.8655 36.8998 22.8655 36.1155V23.254L18.4655 27.673L16.8345 26.0615L24 18.896L31.1655 26.0615L29.5345 27.673L25.1345 23.254V36.1155C25.1345 36.2692 25.1987 36.4102 25.327 36.5385C25.455 36.6665 25.596 36.7305 25.75 36.7305H37.396C38.8703 36.7305 40.128 36.209 41.169 35.166C42.21 34.123 42.7305 32.8685 42.7305 31.4025C42.7305 29.9368 42.21 28.6835 41.169 27.6425C40.128 26.6015 38.8682 26.081 37.3895 26.081H34.2845V21.919C34.2845 19.0163 33.2858 16.5208 31.2885 14.4325C29.2912 12.3442 26.838 11.3 23.929 11.3C21.02 11.3 18.5583 12.3442 16.544 14.4325C14.53 16.5208 13.523 19.0163 13.523 21.919H12.5155C10.5258 21.919 8.82067 22.6345 7.4 24.0655C5.97967 25.4962 5.2695 27.2557 5.2695 29.344C5.2695 31.3657 5.9885 33.1022 7.4265 34.5535C8.8645 36.0048 10.6005 36.7305 12.6345 36.7305H19.096V39H12.6345Z" fill="#1C1B1F"/>
</g>
</svg>
