<svg width="48" height="48" viewBox="0 0 48 48" fill="none" xmlns="http://www.w3.org/2000/svg">
<mask id="mask0_216_45" style="mask-type:alpha" maskUnits="userSpaceOnUse" x="0" y="0" width="48" height="48">
<rect width="48" height="48" fill="#D9D9D9"/>
</mask>
<g mask="url(#mask0_216_45)">
<path d="M7.8845 34.154H40.1155C40.2948 34.154 40.4422 34.0962 40.5575 33.9805C40.6728 33.8652 40.7305 33.7178 40.7305 33.5385V20.923H7.2695V33.5385C7.2695 33.7178 7.32717 33.8652 7.4425 33.9805C7.55783 34.0962 7.70517 34.154 7.8845 34.154ZM35.631 29.048C36.0437 28.6313 36.25 28.1262 36.25 27.5325C36.25 26.9392 36.0417 26.436 35.625 26.023C35.2083 25.6103 34.7032 25.404 34.1095 25.404C33.5162 25.404 33.013 25.6123 32.6 26.029C32.1873 26.4457 31.981 26.9508 31.981 27.5445C31.981 28.1378 32.1893 28.641 32.606 29.054C33.0227 29.4667 33.5278 29.673 34.1215 29.673C34.7148 29.673 35.218 29.4647 35.631 29.048ZM43 18.654H39.7885L34.6345 13.423H13.3655L8.2115 18.654H5L11.5615 12.0155C11.8155 11.7488 12.124 11.5385 12.487 11.3845C12.85 11.2308 13.2325 11.154 13.6345 11.154H34.3655C34.7675 11.154 35.15 11.2308 35.513 11.3845C35.876 11.5385 36.1908 11.7488 36.4575 12.0155L43 18.654ZM7.8845 36.423C7.09817 36.423 6.42083 36.1388 5.8525 35.5705C5.28417 35.0022 5 34.3248 5 33.5385V18.654H43V33.5385C43 34.3248 42.7158 35.0022 42.1475 35.5705C41.5792 36.1388 40.9018 36.423 40.1155 36.423H7.8845Z" fill="#1C1B1F"/>
</g>
</svg>
