<svg width="112" height="112" viewBox="0 0 112 112" fill="none" xmlns="http://www.w3.org/2000/svg">
<mask id="mask0_207_332" style="mask-type:alpha" maskUnits="userSpaceOnUse" x="0" y="0" width="112" height="112">
<rect width="112" height="112" fill="#D9D9D9"/>
</mask>
<g mask="url(#mask0_207_332)">
<path d="M56 74.2712L36.6695 54.9407L40.474 51.1805L49.9411 60.6142C51.2021 61.8707 53.3528 60.9776 53.3528 59.1975V21H58.6472V59.1975C58.6472 60.9776 60.7979 61.8707 62.0589 60.6142L71.526 51.1805L75.3305 54.9407L56 74.2712ZM27.7305 91C25.9004 91 24.3211 90.3358 22.9927 89.0073C21.6642 87.6789 21 86.0996 21 84.2695V69.65H26.2955V84.2695C26.2955 84.6281 26.4448 84.9571 26.7435 85.2565C27.0429 85.5552 27.3719 85.7045 27.7305 85.7045H84.2695C84.6281 85.7045 84.9571 85.5552 85.2565 85.2565C85.5552 84.9571 85.7045 84.6281 85.7045 84.2695V69.65H91V84.2695C91 86.0996 90.3358 87.6789 89.0073 89.0073C87.6789 90.3358 86.0996 91 84.2695 91H27.7305Z" fill="#1C1B1F"/>
</g>
</svg>
