<svg width="48" height="48" viewBox="0 0 48 48" fill="none" xmlns="http://www.w3.org/2000/svg">
<mask id="mask0_218_141" style="mask-type:alpha" maskUnits="userSpaceOnUse" x="0" y="0" width="48" height="48">
<rect width="48" height="48" fill="#D9D9D9"/>
</mask>
<g mask="url(#mask0_218_141)">
<path d="M24 31.577L15.4615 23.0385L17.5695 20.8695L22.5 25.8V9H25.5V25.8L30.4305 20.8695L32.5385 23.0385L24 31.577ZM12.6155 39C11.6052 39 10.75 38.65 10.05 37.95C9.35 37.25 9 36.3948 9 35.3845V29.9615H12V35.3845C12 35.5385 12.0642 35.6795 12.1925 35.8075C12.3205 35.9358 12.4615 36 12.6155 36H35.3845C35.5385 36 35.6795 35.9358 35.8075 35.8075C35.9358 35.6795 36 35.5385 36 35.3845V29.9615H39V35.3845C39 36.3948 38.65 37.25 37.95 37.95C37.25 38.65 36.3948 39 35.3845 39H12.6155Z" fill="#1C1B1F"/>
</g>
</svg>
