<svg width="48" height="48" viewBox="0 0 48 48" fill="none" xmlns="http://www.w3.org/2000/svg">
<mask id="mask0_217_67" style="mask-type:alpha" maskUnits="userSpaceOnUse" x="0" y="0" width="48" height="48">
<rect width="48" height="48" fill="#D9D9D9"/>
</mask>
<g mask="url(#mask0_217_67)">
<path d="M9.2695 38.7305H11.3155L34.7425 15.3345L32.696 13.2885L9.2695 36.6845V38.7305ZM7 41V35.773L35.096 7.66951C35.3037 7.48184 35.548 7.32851 35.829 7.20951C36.1097 7.09051 36.403 7.03101 36.709 7.03101C36.9947 7.03101 37.2748 7.08667 37.5495 7.19801C37.8242 7.30967 38.0795 7.46684 38.3155 7.66951L40.3615 9.71551C40.5845 9.93851 40.7467 10.1912 40.848 10.4735C40.9493 10.7555 41 11.0377 41 11.32C41 11.6067 40.9415 11.8955 40.8245 12.1865C40.7078 12.4775 40.5535 12.7268 40.3615 12.9345L12.227 41H7ZM33.7315 14.3185L32.696 13.2885L34.7425 15.3345L33.7315 14.3185Z" fill="#1C1B1F"/>
</g>
</svg>
