<svg width="48" height="48" viewBox="0 0 48 48" fill="none" xmlns="http://www.w3.org/2000/svg">
<path fill-rule="evenodd" clip-rule="evenodd" d="M20.0509 0C31.1247 0 40.1018 9.0291 40.1018 20.1671C40.1018 27.6708 39.8944 36.4259 45.1849 41.7472L47.2955 43.8701C48.2348 44.8148 48.2348 46.3467 47.2955 47.2914C46.3562 48.2362 44.8334 48.2362 43.8941 47.2914L42.1093 45.4963C36.6938 40.0493 27.732 40.3341 20.0509 40.3341C8.9771 40.3341 0 31.305 0 20.1671C0 9.0291 8.9771 0 20.0509 0ZM20.0509 4.48157C11.4379 4.48157 4.45576 11.5042 4.45576 20.1671C4.45576 28.8299 11.4379 35.8525 20.0509 35.8525C28.6639 35.8525 35.646 28.8299 35.646 20.1671C35.646 11.5042 28.6639 4.48157 20.0509 4.48157Z" fill="currentColor"/>
</svg>
