<svg width="50" height="43" viewBox="0 0 50 43" fill="none" xmlns="http://www.w3.org/2000/svg">
<path d="M25 0C26.077 0 27.0624 0.501741 28.002 1.43652L48.4873 21.8652C49.4725 22.8227 49.9999 23.6431 50 24.8057C50 26.6752 48.4876 27.8613 46.4482 27.8613H37.4199V37.8242C37.4199 41.0162 35.5862 43 32.2178 43H17.7822C14.4138 43 12.5801 41.0162 12.5801 37.8242V27.8613H3.55176C1.51236 27.8613 0 26.6752 0 24.8057C7.938e-05 23.6431 0.504565 22.8683 1.5127 21.8652L21.998 1.43652C22.9376 0.501741 23.923 3.3312e-07 25 0Z" fill="currentColor"/>
</svg>
