<svg width="48" height="48" viewBox="0 0 48 48" fill="none" xmlns="http://www.w3.org/2000/svg">
<path d="M10.4065 23.0582C11.3629 23.0582 12.1382 23.8335 12.1382 24.7898V29.2921C12.1382 30.2485 11.3629 31.0238 10.4065 31.0238H5.90426C4.94789 31.0238 4.17261 30.2485 4.17261 29.2921V24.7898C4.17261 23.8335 4.94789 23.0582 5.90426 23.0582H10.4065Z" fill="currentColor"/>
<path d="M31.5326 23.0582C32.489 23.0582 33.2643 23.8335 33.2643 24.7898V29.2921C33.2643 30.2485 32.489 31.0238 31.5326 31.0238H16.4673C15.5109 31.0238 14.7357 30.2485 14.7357 29.2921V24.7898C14.7357 23.8335 15.5109 23.0582 16.4673 23.0582H31.5326Z" fill="currentColor"/>
<path d="M42.0957 23.0582C43.0521 23.0582 43.8273 23.8335 43.8273 24.7898V29.2921C43.8273 30.2485 43.0521 31.0238 42.0957 31.0238H37.5934C36.6371 31.0238 35.8618 30.2485 35.8618 29.2921V24.7898C35.8618 23.8335 36.6371 23.0582 37.5934 23.0582H42.0957Z" fill="#FF0000"/>
<path d="M10.4065 12.4951C11.3629 12.4951 12.1382 13.2704 12.1382 14.2268V18.729C12.1382 19.6854 11.3629 20.4607 10.4065 20.4607H5.90426C4.94789 20.4607 4.17261 19.6854 4.17261 18.729V14.2268C4.17261 13.2704 4.94789 12.4951 5.90426 12.4951H10.4065Z" fill="currentColor"/>
<path d="M20.9696 12.4951C21.926 12.4951 22.7012 13.2704 22.7012 14.2268V18.729C22.7012 19.6854 21.926 20.4607 20.9696 20.4607H16.4673C15.5109 20.4607 14.7357 19.6854 14.7357 18.729V14.2268C14.7357 13.2704 15.5109 12.4951 16.4673 12.4951H20.9696Z" fill="currentColor"/>
<path d="M31.5326 12.4951C32.489 12.4951 33.2643 13.2704 33.2643 14.2268V18.729C33.2643 19.6854 32.489 20.4607 31.5326 20.4607H27.0304C26.074 20.4607 25.2987 19.6854 25.2987 18.729V14.2268C25.2987 13.2704 26.074 12.4951 27.0304 12.4951H31.5326Z" fill="currentColor"/>
<path d="M42.0957 12.4951C43.0521 12.4951 43.8273 13.2704 43.8273 14.2268V18.729C43.8273 19.6854 43.0521 20.4607 42.0957 20.4607H37.5934C36.6371 20.4607 35.8618 19.6854 35.8618 18.729V14.2268C35.8618 13.2704 36.6371 12.4951 37.5934 12.4951H42.0957Z" fill="currentColor"/>
<rect x="4.17261" y="33.0083" width="39.6547" height="2.49679" rx="1.2484" fill="currentColor"/>
</svg>
