<svg width="7" height="7" viewBox="0 0 7 7" fill="none" xmlns="http://www.w3.org/2000/svg">
<g clip-path="url(#clip0_201_15023)">
<path d="M3.65418 3.5372L3.88742 3.88706H3.47091C3.42926 4.63955 3.33208 5.38926 3.19324 6.13064L2.91557 6.08621C3.05441 5.35872 3.14882 4.62567 3.19324 3.88706H2.77674L3.00998 3.5372C2.39911 3.27341 1.94373 2.321 1.94373 1.6657C1.94373 1.29748 2.09 0.94435 2.35036 0.683983C2.61073 0.423616 2.96386 0.277344 3.33208 0.277344C3.5144 0.277344 3.69494 0.313255 3.86338 0.383026C4.03182 0.452797 4.18487 0.555063 4.31379 0.683983C4.44271 0.812904 4.54498 0.965954 4.61475 1.1344C4.68452 1.30284 4.72043 1.48338 4.72043 1.6657C4.72043 2.321 4.26505 3.27341 3.65418 3.5372Z" fill="black"/>
</g>
<defs>
<clipPath id="clip0_201_15023">
<rect width="6.6641" height="6.6641" fill="white"/>
</clipPath>
</defs>
</svg>
