<svg width="7" height="7" viewBox="0 0 7 7" fill="none" xmlns="http://www.w3.org/2000/svg">
<g clip-path="url(#clip0_201_19625)">
<path d="M5.57006 4.99806C5.5534 4.95086 5.52841 4.87034 5.51452 4.75094C5.32848 4.94531 5.10357 5.04249 4.84534 5.04249C4.61487 5.04249 4.42328 4.97585 4.27611 4.84534C4.12895 4.72039 4.05398 4.55101 4.05398 4.34831C4.05398 4.10396 4.14561 3.91515 4.33165 3.77909C4.51769 3.64303 4.7787 3.57639 5.11745 3.57639H5.50619V3.39868C5.50619 3.26262 5.46454 3.15433 5.38124 3.07381C5.29794 2.99328 5.17299 2.95441 5.01194 2.95441C4.86755 2.95441 4.74815 2.98773 4.65097 3.05437C4.55378 3.12379 4.50658 3.20431 4.50658 3.3015H4.10118C4.10118 3.1821 4.14283 3.06825 4.22613 2.95718C4.30388 2.84612 4.42328 2.76004 4.56489 2.69617C4.7065 2.63786 4.85922 2.59899 5.03415 2.59899C5.30627 2.59899 5.5173 2.66563 5.67002 2.80169C5.82274 2.93775 5.90326 3.12379 5.90882 3.36258V4.44272C5.90882 4.66486 5.93658 4.83701 5.99212 4.96474V4.99806H5.57006ZM4.90365 4.68707C5.0286 4.68707 5.148 4.65653 5.26184 4.59822C5.37291 4.53991 5.45621 4.46216 5.50619 4.36775V3.93181H5.19243C4.70095 3.93181 4.45382 4.06231 4.45382 4.32332C4.45382 4.44272 4.49547 4.52602 4.58155 4.58989C4.66485 4.65375 4.77037 4.68707 4.90365 4.68707ZM1.51607 3.80686H2.64619L2.08251 2.30188L1.51607 3.80686ZM1.84372 1.66602H2.32131L3.62914 4.99806H3.09324L2.82389 4.28445H1.33836L1.07179 4.99806H0.535889L1.84372 1.66602ZM0.555326 5.5534H3.6097V6.10875H0.555326V5.5534Z" fill="currentColor"/>
</g>
<defs>
<clipPath id="clip0_201_19625">
<rect width="6.6641" height="6.6641" fill="white"/>
</clipPath>
</defs>
</svg>
