<svg width="7" height="7" viewBox="0 0 7 7" fill="none" xmlns="http://www.w3.org/2000/svg">
<g clip-path="url(#clip0_201_20007)">
<path d="M1.2745 1.91315C1.46887 1.716 1.66601 1.53829 1.74931 1.57439C1.88815 1.62992 1.74931 1.86039 1.66601 1.99645C1.5966 2.11307 0.871875 3.07659 0.871875 3.74855C0.871875 4.10397 1.00516 4.3983 1.24951 4.58156C1.45221 4.7315 1.7271 4.77871 1.977 4.70374C2.27411 4.61766 2.51846 4.315 2.82668 3.93459C3.16266 3.52086 3.60971 2.9794 3.95957 2.9794C4.41218 2.9794 4.41773 3.25985 4.44272 3.47088C3.39868 3.65414 2.95441 4.49548 2.95441 4.96752C2.95441 5.43956 3.35425 5.83108 3.84573 5.83108C4.30388 5.83108 5.03694 5.45622 5.148 4.13174H5.83107V3.43756H5.14523C5.10358 2.9794 4.84257 2.27134 4.02621 2.27134C3.40145 2.27134 2.86555 2.80169 2.65452 3.05437C2.49903 3.26263 2.08252 3.74855 2.01866 3.81519C1.94368 3.89849 1.82984 4.04843 1.71044 4.04843C1.58549 4.04843 1.51052 3.81797 1.61048 3.51531C1.70766 3.21265 1.99922 2.72117 2.12417 2.53791C2.34075 2.22136 2.48514 2.00478 2.48514 1.62715C2.48514 1.0246 2.02976 0.833008 1.78819 0.833008C1.42166 0.833008 1.10234 1.11068 1.03292 1.1801C0.932963 1.28006 0.849662 1.36336 0.788574 1.43833L1.2745 1.91315ZM3.85406 5.15079C3.76798 5.15079 3.64858 5.07859 3.64858 4.95086C3.64858 4.78426 3.85128 4.33999 4.44272 4.18449C4.3622 4.93143 4.04843 5.15079 3.85406 5.15079Z" fill="white"/>
</g>
<defs>
<clipPath id="clip0_201_20007">
<rect width="6.6641" height="6.6641" fill="white"/>
</clipPath>
</defs>
</svg>
