<svg width="7" height="7" viewBox="0 0 7 7" fill="none" xmlns="http://www.w3.org/2000/svg">
<path d="M4.99811 1.11133H1.66606C1.36062 1.11133 1.11072 1.36123 1.11072 1.66667V4.99872C1.11072 5.30415 1.36062 5.55406 1.66606 5.55406H4.99811C5.30354 5.55406 5.55345 5.30415 5.55345 4.99872V1.66667C5.55345 1.36123 5.30354 1.11133 4.99811 1.11133ZM2.77674 2.91619H2.08257V3.7492H2.36024V3.33269H2.77674V3.7964C2.77674 3.97967 2.62958 4.16571 2.40744 4.16571H2.03536C1.81322 4.16571 1.66606 3.97967 1.66606 3.7964V2.86898C1.66606 2.68572 1.81322 2.49968 2.03536 2.49968H2.40744C2.62958 2.49968 2.77674 2.68572 2.77674 2.86898V2.91619ZM3.60975 4.16571H3.19325V2.49968H3.60975V4.16571ZM4.85927 2.91619H4.44277V3.19386H4.85927V3.61036H4.44277V4.16571H4.02626V2.49968H4.85927V2.91619Z" fill="currentColor"/>
</svg>
