<svg width="83" height="106" viewBox="0 0 83 106" fill="none" xmlns="http://www.w3.org/2000/svg">
<path d="M82.2248 78.6032C79.5327 95.9222 63.3059 107.796 45.9817 105.123C28.6576 102.451 16.7958 86.2442 19.4879 68.9252C19.6211 68.0682 19.6599 67.2655 19.8579 66.4363C19.8601 66.4045 20.8213 52.5984 17.853 43.3487C14.8812 34.0882 2.06568 13.9359 2.06568 13.9359L1.23597 12.6705C-1.05089 9.18242 -0.0739878 4.49798 3.41819 2.20848L4.89656 1.2394C8.38865 -1.04978 13.0731 -0.07748 15.3599 3.41042L25.9445 19.5869C29.1085 23.7436 32.8114 28.2211 35.9941 31.0267C43.2813 37.4505 56.3171 42.0981 56.3471 42.1088C73.5011 44.9269 84.9006 61.3886 82.2248 78.6032Z" fill="black"/>
</svg>
