<svg width="51" height="33" viewBox="0 0 51 33" fill="none" xmlns="http://www.w3.org/2000/svg">
<path d="M7.61104 18.8094L17.8061 29.0734C18.2311 29.5012 18.4484 30.0389 18.4581 30.6865C18.4678 31.3336 18.2505 31.8811 17.8061 32.329C17.3618 32.7763 16.8228 33 16.1893 33C15.5562 33 15.0175 32.7763 14.5732 32.329L0.78465 18.4472C0.497278 18.1579 0.294787 17.8529 0.177179 17.5322C0.0590596 17.2115 0 16.865 0 16.4928C0 16.1206 0.0590596 15.7742 0.177179 15.4535C0.294787 15.1327 0.497278 14.8277 0.78465 14.5384L14.5732 0.656678C14.9981 0.229398 15.5319 0.0106098 16.1747 0.000313921C16.818 -0.0094672 17.3618 0.209321 17.8061 0.656678C18.2505 1.10455 18.4727 1.64715 18.4727 2.28446C18.4727 2.92178 18.2505 3.46438 17.8061 3.91225L7.61104 14.1762H48.699C49.3519 14.1762 49.8986 14.3981 50.3388 14.8419C50.7796 15.2851 51 15.8354 51 16.4928C51 17.1502 50.7796 17.7005 50.3388 18.1438C49.8986 18.5875 49.3519 18.8094 48.699 18.8094H7.61104Z" fill="white"/>
</svg>
