<svg width="48" height="41" viewBox="0 0 48 41" fill="none" xmlns="http://www.w3.org/2000/svg">
<path d="M40.7846 41L21.7562 40.978C18.8304 40.978 16.6746 40.1435 14.6948 37.9914L2.22181 24.8591C0.615949 23.1462 0 21.8506 0 20.4671C0 19.0836 0.615949 17.8099 2.22181 16.075L14.6728 2.87681C16.6526 0.724692 18.8084 0 21.7562 0H40.7846C45.5362 0 48 2.4376 48 7.13712V34.0386C48 38.7381 45.5362 41 40.7846 41ZM40.5206 36.6958C42.5665 36.6958 43.6884 35.6197 43.6884 33.4896V7.48848C43.6884 5.35833 42.5665 4.30423 40.5206 4.30423H21.5582C20.0403 4.30423 19.0284 4.58972 17.9505 5.70969L5.58753 18.82C4.94959 19.5008 4.72961 19.962 4.72961 20.4671C4.72961 20.9721 4.92759 21.4553 5.58753 22.136L17.9725 35.1805C19.0504 36.3005 20.0403 36.6958 21.5802 36.6958H40.5206ZM22.2621 29.1194C21.8882 29.4928 21.4262 29.7124 20.8323 29.7124C19.7324 29.7124 18.8524 28.834 18.8524 27.714C18.8524 27.165 19.0724 26.7038 19.4464 26.3305L25.2759 20.511L19.4464 14.6915C19.0724 14.3182 18.8524 13.835 18.8524 13.308C18.8524 12.21 19.7324 11.3535 20.8323 11.3535C21.4042 11.3535 21.8442 11.5292 22.2401 11.9245L28.0697 17.744L33.9212 11.9245C34.2951 11.5292 34.7571 11.3535 35.3291 11.3535C36.429 11.3535 37.3089 12.21 37.3089 13.308C37.3089 13.835 37.0889 14.3182 36.7149 14.6915L30.8634 20.511L36.7149 26.3305C37.0889 26.7038 37.3089 27.165 37.3089 27.714C37.3089 28.834 36.429 29.7124 35.3291 29.7124C34.7351 29.7124 34.2511 29.4928 33.8772 29.1194L28.0697 23.3219L22.2621 29.1194Z" fill="currentColor"/>
</svg>
