<svg width="512" height="512" viewBox="0 0 512 512" fill="none" xmlns="http://www.w3.org/2000/svg">
<path d="M189.725 262.332C194.388 262.332 198.168 266.112 198.168 270.775V292.726C198.168 297.388 194.388 301.168 189.725 301.168H167.774C163.111 301.168 159.331 297.388 159.331 292.726V270.775C159.331 266.112 163.111 262.332 167.774 262.332H189.725Z" fill="black"/>
<path d="M292.726 262.332C297.388 262.332 301.168 266.112 301.168 270.775V292.726C301.168 297.388 297.388 301.168 292.726 301.168H219.274C214.612 301.168 210.832 297.388 210.832 292.726V270.775C210.832 266.112 214.612 262.332 219.274 262.332H292.726Z" fill="black"/>
<path d="M344.226 262.332C348.889 262.332 352.669 266.112 352.669 270.775V292.726C352.669 297.388 348.889 301.168 344.226 301.168H322.275C317.612 301.168 313.832 297.388 313.832 292.726V270.775C313.832 266.112 317.612 262.332 322.275 262.332H344.226Z" fill="#FF0000"/>
<path d="M189.725 210.832C194.388 210.832 198.168 214.611 198.168 219.274V241.225C198.168 245.888 194.388 249.668 189.725 249.668H167.774C163.111 249.668 159.331 245.888 159.331 241.225V219.274C159.331 214.611 163.111 210.832 167.774 210.832H189.725Z" fill="black"/>
<path d="M241.225 210.832C245.888 210.832 249.668 214.611 249.668 219.274V241.225C249.668 245.888 245.888 249.668 241.225 249.668H219.274C214.612 249.668 210.832 245.888 210.832 241.225V219.274C210.832 214.611 214.612 210.832 219.274 210.832H241.225Z" fill="black"/>
<path d="M292.726 210.832C297.388 210.832 301.168 214.611 301.168 219.274V241.225C301.168 245.888 297.388 249.668 292.726 249.668H270.775C266.112 249.668 262.332 245.888 262.332 241.225V219.274C262.332 214.611 266.112 210.832 270.775 210.832H292.726Z" fill="black"/>
<path d="M344.226 210.832C348.889 210.832 352.669 214.611 352.669 219.274V241.225C352.669 245.888 348.889 249.668 344.226 249.668H322.275C317.612 249.668 313.832 245.888 313.832 241.225V219.274C313.832 214.611 317.612 210.832 322.275 210.832H344.226Z" fill="black"/>
</svg>
