<svg width="50" height="43" viewBox="0 0 50 43" fill="none" xmlns="http://www.w3.org/2000/svg">
<path d="M17.7819 43C14.4134 43 12.5802 41.0164 12.5802 37.8245V27.8611H3.55179C1.51237 27.8611 0 26.6755 0 24.8059C0 23.6432 0.504125 22.868 1.51237 21.8648L21.9982 1.43637C22.9377 0.501591 23.923 0 25 0C26.077 0 27.0623 0.501591 28.0018 1.43637L48.4876 21.8648C49.473 22.8224 50 23.6432 50 24.8059C50 26.6755 48.4876 27.8611 46.4482 27.8611H37.4198V37.8245C37.4198 41.0164 35.5866 43 32.2182 43H17.7819ZM18.6297 38.5769H31.3703C32.1494 38.5769 32.7223 37.9841 32.7223 37.2089V24.5551C32.7223 24.008 32.9285 23.8028 33.4785 23.8028H43.5151C43.6526 23.8028 43.7443 23.7344 43.7443 23.6204C43.7443 23.552 43.6984 23.4836 43.6068 23.3924L25.4354 5.3579C25.275 5.2211 25.1375 5.1527 25 5.1527C24.8625 5.1527 24.725 5.2211 24.5646 5.3579L6.39322 23.3924C6.30156 23.4836 6.27864 23.552 6.27864 23.6204C6.27864 23.7344 6.34739 23.8028 6.50779 23.8028H16.5215C17.0715 23.8028 17.2777 24.008 17.2777 24.5551V37.2089C17.2777 38.0297 17.8277 38.5769 18.6297 38.5769Z" fill="currentColor"/>
</svg>
