<svg width="7" height="7" viewBox="0 0 7 7" fill="none" xmlns="http://www.w3.org/2000/svg">
<g clip-path="url(#clip0_201_20263)">
<path d="M3.69302 5.3474L5.26464 3.77856L5.8533 4.36722L4.28168 5.93606L3.69302 5.3474ZM4.58157 3.08994L3.72079 2.23471C3.68469 2.19861 3.64582 2.17362 3.60972 2.15419L3.29873 0.962979C3.25986 0.813036 3.10991 0.724182 2.95997 0.763056C2.81281 0.799153 2.72395 0.951872 2.76005 1.09904L3.05438 2.22916L2.40741 0.885231C2.34354 0.746395 2.17694 0.693638 2.0381 0.751949C1.89927 0.81859 1.84096 0.985192 1.9076 1.12403L2.37686 2.10698L1.44111 1.17956C1.33282 1.07127 1.15511 1.07127 1.04682 1.17956C0.938529 1.29063 0.941305 1.46556 1.0496 1.57385L2.08253 2.60124L1.88816 2.67621L1.58828 2.7956L1.05793 3.16213C1.05793 3.16213 0.833014 3.45368 0.813577 3.57864C0.791363 3.70359 1.03294 4.33112 1.03294 4.33112H1.03571C1.08014 4.42553 1.17455 4.49217 1.28562 4.49217C1.35926 4.49217 1.42989 4.46292 1.48196 4.41084C1.53403 4.35877 1.56329 4.28814 1.56329 4.2145C1.56329 4.18673 1.55496 4.16452 1.54663 4.13953L1.55218 4.13675L1.38836 3.65638L1.72989 3.38427C1.8604 3.38982 2.14084 3.41203 2.2769 3.42036C3.03494 4.10066 2.31855 4.36722 2.31855 4.36722L1.35781 4.66155L1.31061 4.70043C1.24952 4.75596 1.22453 4.83093 1.22731 4.90868L1.23286 5.20579L3.01828 5.06695C3.1238 5.06973 3.22376 5.03085 3.30151 4.95588L4.58157 3.6786C4.72873 3.52866 4.73429 3.24821 4.58157 3.08994Z" fill="currentColor"/>
</g>
<defs>
<clipPath id="clip0_201_20263">
<rect width="6.6641" height="6.6641" fill="white"/>
</clipPath>
</defs>
</svg>
