<svg width="52" height="45" viewBox="0 0 52 45" fill="none" xmlns="http://www.w3.org/2000/svg">
<path d="M0 28.5539C0 27.9412 0.246446 27.3775 0.739336 26.9118L15.2303 12.7696C15.6493 12.3529 16.29 12.0833 16.8076 12.0833C18.1384 12.0833 19.0009 12.9902 19.0009 14.2402C19.0009 14.8775 18.7791 15.3676 18.4095 15.7598L11.2872 22.6471L6.62938 26.6176L12.3962 26.3725H43.8673C46.4796 26.3725 47.5886 25.2451 47.5886 22.5735V8.08823C47.5886 5.4902 46.4796 4.36275 43.8673 4.36275H30.0664C28.7109 4.36275 27.8237 3.38235 27.8237 2.18137C27.8237 0.980392 28.7109 0 30.0664 0H43.8673C49.6095 0 52 2.37745 52 8.08823V22.5735C52 28.1127 49.6095 30.7353 43.8673 30.7353H12.3962L6.62938 30.4902L11.2872 34.4608L18.4095 41.348C18.7791 41.7402 19.0009 42.2059 19.0009 42.8431C19.0009 44.1176 18.1384 45 16.8076 45C16.29 45 15.6493 44.7549 15.2303 44.3382L0.739336 30.1961C0.246446 29.7304 0 29.1422 0 28.5539Z" fill="white"/>
</svg>
