<svg width="48" height="48" viewBox="0 0 48 48" fill="none" xmlns="http://www.w3.org/2000/svg">
<mask id="mask0_1084_151" style="mask-type:alpha" maskUnits="userSpaceOnUse" x="0" y="0" width="48" height="48">
<rect width="48" height="48" fill="#D9D9D9"/>
</mask>
<g mask="url(#mask0_1084_151)">
<path d="M32.65 37.6L28.25 42L24 37.75L28.4 33.35C28.2667 32.9833 28.1667 32.6 28.1 32.2C28.0333 31.8 28 31.4 28 31C28 29.0667 28.6833 27.4167 30.05 26.05C31.4167 24.6833 33.0667 24 35 24C35.6 24 36.1833 24.075 36.75 24.225C37.3167 24.375 37.85 24.5833 38.35 24.85L33.6 29.6L36.4 32.4L41.15 27.7C41.4167 28.2 41.625 28.725 41.775 29.275C41.925 29.825 42 30.4 42 31C42 32.9333 41.3167 34.5833 39.95 35.95C38.5833 37.3167 36.9333 38 35 38C34.5667 38 34.1583 37.9667 33.775 37.9C33.3917 37.8333 33.0167 37.7333 32.65 37.6ZM41.55 20H37.4C36.5333 17.0667 34.8833 14.6667 32.45 12.8C30.0167 10.9333 27.2 10 24 10C20.1 10 16.7917 11.3583 14.075 14.075C11.3583 16.7917 10 20.1 10 24C10 26.4 10.5417 28.6 11.625 30.6C12.7083 32.6 14.1667 34.2333 16 35.5V30H20V42H8V38H12.7C10.6333 36.3333 9 34.2917 7.8 31.875C6.6 29.4583 6 26.8333 6 24C6 21.5 6.475 19.1583 7.425 16.975C8.375 14.7917 9.65833 12.8917 11.275 11.275C12.8917 9.65833 14.7917 8.375 16.975 7.425C19.1583 6.475 21.5 6 24 6C28.3 6 32.075 7.325 35.325 9.975C38.575 12.625 40.65 15.9667 41.55 20Z" fill="#D71921"/>
</g>
</svg>
