<svg width="55" height="55" viewBox="0 0 55 55" fill="none" xmlns="http://www.w3.org/2000/svg">
<mask id="mask0_1526_71" style="mask-type:alpha" maskUnits="userSpaceOnUse" x="0" y="0" width="55" height="55">
<rect width="55" height="55" fill="#D9D9D9"/>
</mask>
<g mask="url(#mask0_1526_71)">
<path d="M14.9842 28.4395C15.9628 26.0947 17.1122 23.8493 18.4326 21.7031C19.7534 19.557 21.2261 17.5187 22.8509 15.5884L19.7394 14.9358C19.0489 14.7979 18.3776 14.8289 17.7256 15.0286C17.0733 15.2284 16.5017 15.5737 16.0109 16.0645L9.21093 22.8644C8.69683 23.3785 8.503 23.9999 8.62942 24.7287C8.75546 25.4571 9.16376 25.9593 9.85432 26.2355L14.9842 28.4395ZM46.1812 7.13097C42.3973 7.07254 38.8137 7.85552 35.4305 9.47993C32.0476 11.1047 29.0193 13.2539 26.3457 15.9275C24.6296 17.6432 23.115 19.5044 21.8019 21.5112C20.4884 23.5179 19.3307 25.6245 18.3289 27.831C18.1379 28.2836 18.0424 28.7456 18.0424 29.2169C18.0424 29.6886 18.2187 30.1007 18.5712 30.4533L25.0939 36.9536C25.4464 37.3061 25.8547 37.486 26.3188 37.4933C26.7832 37.5005 27.2416 37.4087 27.6938 37.2177C29.9003 36.2307 32.0069 35.0733 34.0136 33.7452C36.0204 32.4172 37.8816 30.8954 39.5973 29.1797C42.2709 26.5061 44.4201 23.4776 46.0449 20.0944C47.6697 16.7115 48.4527 13.1279 48.3938 9.34358C48.3938 9.06743 48.3322 8.79854 48.2088 8.53691C48.0854 8.27566 47.9164 8.03771 47.7018 7.82305C47.4875 7.60878 47.2495 7.43977 46.9879 7.31602C46.7267 7.19266 46.4578 7.13097 46.1812 7.13097ZM31.4579 20.0634C31.4579 18.9455 31.8455 17.9988 32.6209 17.2235C33.3966 16.4477 34.3435 16.0599 35.4614 16.0599C36.5794 16.0599 37.5262 16.4477 38.3019 17.2235C39.0773 17.9988 39.4649 18.9455 39.4649 20.0634C39.4649 21.1814 39.0773 22.1282 38.3019 22.9039C37.5262 23.6797 36.5794 24.0675 35.4614 24.0675C34.3435 24.0675 33.3966 23.6797 32.6209 22.9039C31.8455 22.1282 31.4579 21.1814 31.4579 20.0634ZM27.0636 40.5406L29.267 45.6705C29.5436 46.3611 30.046 46.7753 30.7744 46.9132C31.5031 47.0514 32.1245 46.8635 32.6386 46.3494L39.4386 39.5495C39.9294 39.0587 40.2747 38.4775 40.4744 37.8061C40.6742 37.135 40.7049 36.4542 40.5667 35.7636L39.9502 32.6745C37.9962 34.2989 35.952 35.7715 33.8177 37.0922C31.683 38.413 29.4316 39.5625 27.0636 40.5406ZM10.5372 36.8917C11.654 35.7753 13.0094 35.215 14.6032 35.2108C16.1971 35.2062 17.5522 35.7621 18.6686 36.8785C19.7851 37.9949 20.3433 39.3501 20.3433 40.9439C20.3433 42.5378 19.7851 43.8929 18.6686 45.0094C17.1141 46.5639 15.2808 47.5092 13.1686 47.8453C11.0561 48.1818 8.93039 48.4778 6.7915 48.7333C7.04702 46.5799 7.35258 44.4506 7.70817 42.3453C8.06376 40.2404 9.00678 38.4225 10.5372 36.8917Z" fill="#E2E2E2"/>
</g>
</svg>
