<svg width="7" height="7" viewBox="0 0 7 7" fill="none" xmlns="http://www.w3.org/2000/svg">
<path d="M5.83104 0.833008V4.30389C5.83104 4.56164 5.72865 4.80883 5.54639 4.99109C5.36414 5.17335 5.11694 5.27574 4.85919 5.27574C4.60144 5.27574 4.35425 5.17335 4.17199 4.99109C3.98974 4.80883 3.88735 4.56164 3.88735 4.30389C3.88735 4.04614 3.98974 3.79895 4.17199 3.61669C4.35425 3.43443 4.60144 3.33204 4.85919 3.33204C5.00914 3.33204 5.15075 3.36536 5.2757 3.42645V1.79652L2.49899 2.38796V4.85923C2.49899 5.11698 2.3966 5.36418 2.21434 5.54643C2.03209 5.72869 1.7849 5.83108 1.52715 5.83108C1.2694 5.83108 1.0222 5.72869 0.839945 5.54643C0.657689 5.36418 0.555298 5.11698 0.555298 4.85923C0.555298 4.60148 0.657689 4.35429 0.839945 4.17203C1.0222 3.98978 1.2694 3.88738 1.52715 3.88738C1.67709 3.88738 1.8187 3.92071 1.94365 3.98179V1.66602L5.83104 0.833008Z" fill="currentColor"/>
</svg>
