<svg width="60" height="60" viewBox="0 0 60 60" fill="none" xmlns="http://www.w3.org/2000/svg">
<mask id="mask0_1593_281" style="mask-type:alpha" maskUnits="userSpaceOnUse" x="0" y="0" width="60" height="60">
<rect width="60" height="60" transform="matrix(1 0 0 -1 0 60)" fill="#D9D9D9"/>
</mask>
<g mask="url(#mask0_1593_281)">
<path d="M7.59375 42.4059C10.9896 45.8017 15.125 47.4996 20 47.4996C21.0833 47.4996 22.1354 47.3954 23.1562 47.1871C24.1771 46.9788 25.1667 46.7079 26.125 46.3746C26.625 46.1663 26.9167 45.7913 27 45.2496C27.0833 44.7079 26.9167 44.2496 26.5 43.8746C24.625 42.0413 23.1771 39.9267 22.1562 37.5309C21.1354 35.135 20.625 32.6246 20.625 29.9996C20.625 27.3746 21.1354 24.8642 22.1562 22.4683C23.1771 20.0725 24.625 17.9579 26.5 16.1246C26.9167 15.7079 27.0833 15.2392 27 14.7183C26.9167 14.1975 26.625 13.8329 26.125 13.6246C25.1667 13.2913 24.1771 13.0204 23.1562 12.8121C22.1354 12.6038 21.0833 12.4996 20 12.4996C15.125 12.4996 10.9896 14.1975 7.59375 17.5933C4.19792 20.9892 2.5 25.1246 2.5 29.9996C2.5 34.8746 4.19792 39.01 7.59375 42.4059ZM29.4062 16.2808C29.2188 16.3433 29.0208 16.4579 28.8125 16.6246C26.8125 18.3329 25.2604 20.3225 24.1562 22.5933C23.0521 24.8642 22.5 27.3329 22.5 29.9996C22.5 32.6663 23.0521 35.135 24.1562 37.4059C25.2604 39.6767 26.8125 41.6663 28.8125 43.3746C29.0208 43.5413 29.2188 43.6558 29.4062 43.7183C29.5938 43.7808 29.7917 43.8121 30 43.8121C30.2083 43.8121 30.4062 43.7808 30.5938 43.7183C30.7812 43.6558 30.9792 43.5413 31.1875 43.3746C33.1875 41.6663 34.7396 39.6767 35.8438 37.4059C36.9479 35.135 37.5 32.6663 37.5 29.9996C37.5 27.3329 36.9479 24.8642 35.8438 22.5933C34.7396 20.3225 33.1875 18.3329 31.1875 16.6246C30.9792 16.4579 30.7812 16.3433 30.5938 16.2808C30.4062 16.2183 30.2083 16.1871 30 16.1871C29.7917 16.1871 29.5938 16.2183 29.4062 16.2808ZM56.1875 23.3121C55.3125 21.1871 54.0417 19.2913 52.375 17.6246C50.125 15.3746 47.4583 13.8433 44.375 13.0308C41.2917 12.2183 38.2083 12.2704 35.125 13.1871C34.625 13.3538 34.25 13.6558 34 14.0933C33.75 14.5308 33.7083 14.9996 33.875 15.4996C34.0417 15.9996 34.3438 16.3746 34.7812 16.6246C35.2188 16.8746 35.6875 16.9163 36.1875 16.7496C38.6042 16.0413 41.0208 16.01 43.4375 16.6558C45.8542 17.3017 47.9583 18.5204 49.75 20.3121C51.0417 21.6038 52.0312 23.0829 52.7188 24.7496C53.4062 26.4163 53.75 28.1663 53.75 29.9996C53.75 31.8329 53.4062 33.5934 52.7188 35.2809C52.0312 36.9684 51.0417 38.4579 49.75 39.7496C47.9583 41.5413 45.8542 42.7496 43.4375 43.3746C41.0208 43.9996 38.6042 43.9579 36.1875 43.2496C35.6875 43.0829 35.2188 43.1246 34.7812 43.3746C34.3438 43.6246 34.0417 43.9996 33.875 44.4996C33.7083 44.9996 33.75 45.4683 34 45.9058C34.25 46.3433 34.625 46.6454 35.125 46.8121C38.2083 47.7288 41.2917 47.7808 44.375 46.9683C47.4583 46.1558 50.125 44.6246 52.375 42.3746C54.0417 40.7079 55.3125 38.8121 56.1875 36.6871C57.0625 34.5621 57.5 32.3329 57.5 29.9996C57.5 27.6663 57.0625 25.4371 56.1875 23.3121Z" fill="currentColor"/>
</g>
</svg>
