<svg width="7" height="7" viewBox="0 0 7 7" fill="none" xmlns="http://www.w3.org/2000/svg">
<g clip-path="url(#clip0_201_25447)">
<path d="M4.99805 4.16483C5.29262 4.16483 5.57513 4.28185 5.78342 4.49014C5.99172 4.69843 6.10873 4.98094 6.10873 5.27551C6.10873 5.57008 5.99172 5.85259 5.78342 6.06088C5.57513 6.26918 5.29262 6.38619 4.99805 6.38619C4.70348 6.38619 4.42097 6.26918 4.21268 6.06088C4.00439 5.85259 3.88737 5.57008 3.88737 5.27551C3.88737 4.98094 4.00439 4.69843 4.21268 4.49014C4.42097 4.28185 4.70348 4.16483 4.99805 4.16483ZM4.99805 4.72017C4.85077 4.72017 4.70951 4.77868 4.60537 4.88283C4.50122 4.98697 4.44271 5.12823 4.44271 5.27551C4.44271 5.4228 4.50122 5.56405 4.60537 5.6682C4.70951 5.77234 4.85077 5.83085 4.99805 5.83085C5.14534 5.83085 5.28659 5.77234 5.39074 5.6682C5.49488 5.56405 5.55339 5.4228 5.55339 5.27551C5.55339 5.12823 5.49488 4.98697 5.39074 4.88283C5.28659 4.77868 5.14534 4.72017 4.99805 4.72017ZM1.67989 4.0371C1.67989 4.0371 2.0714 3.64281 2.07418 2.85978C1.97422 2.25168 2.21301 1.53807 2.76003 0.993831C3.5736 0.180256 4.75925 0.0469737 5.41456 0.693946C6.06153 1.34925 5.92825 2.5349 5.11467 3.34848C4.57044 3.89549 3.85682 4.13429 3.24873 4.03432C2.46569 4.0371 2.0714 4.42862 2.0714 4.42862L0.894079 5.60594L0.502563 5.21442L1.67989 4.0371ZM5.01749 1.09102C4.58155 0.657849 3.74853 0.788354 3.15154 1.38812C2.55733 1.98234 2.42404 2.81813 2.85721 3.25129C3.29315 3.68446 4.12617 3.55118 4.72038 2.95696C5.32015 2.35997 5.45065 1.52696 5.01749 1.09102Z" fill="black"/>
</g>
<defs>
<clipPath id="clip0_201_25447">
<rect width="6.6641" height="6.6641" fill="white"/>
</clipPath>
</defs>
</svg>
