<svg width="48" height="48" viewBox="0 0 48 48" fill="none" xmlns="http://www.w3.org/2000/svg">
<mask id="mask0_40_556" style="mask-type:alpha" maskUnits="userSpaceOnUse" x="0" y="0" width="48" height="48">
<rect width="48" height="48" fill="#D9D9D9"/>
</mask>
<g mask="url(#mask0_40_556)">
<path d="M28.7305 45H22.2115C21.7088 45 21.282 44.8275 20.931 44.4825C20.5797 44.1378 20.404 43.7205 20.404 43.2305V32.019C20.404 31.5293 20.5797 31.1122 20.931 30.7675C21.282 30.4225 21.7088 30.25 22.2115 30.25H23.9615V23.346C23.9615 23.1793 23.8942 23.0383 23.7595 22.923C23.6248 22.8077 23.4613 22.75 23.269 22.75H8.6925C7.6695 22.75 6.79833 22.3968 6.079 21.6905C5.35967 20.9838 5 20.1318 5 19.1345V12.096C5 11.1117 5.35967 10.2662 6.079 9.5595C6.79833 8.85317 7.6695 8.5 8.6925 8.5H11.923V6.7695C11.923 6.2795 12.0987 5.86217 12.45 5.5175C12.8013 5.1725 13.2282 5 13.7305 5H37.192C37.6947 5 38.1217 5.1725 38.473 5.5175C38.8243 5.86217 39 6.2795 39 6.7695V13.2305C39 13.7205 38.8243 14.1378 38.473 14.4825C38.1217 14.8275 37.6947 15 37.192 15H13.7305C13.2282 15 12.8013 14.8275 12.45 14.4825C12.0987 14.1378 11.923 13.7205 11.923 13.2305V11.5H8.6925C8.48717 11.5 8.3205 11.5577 8.1925 11.673C8.06417 11.7883 8 11.9293 8 12.096V19.1345C8 19.3142 8.06417 19.4617 8.1925 19.577C8.3205 19.6923 8.48717 19.75 8.6925 19.75H23.269C24.2793 19.75 25.1473 20.1032 25.873 20.8095C26.5987 21.5158 26.9615 22.3613 26.9615 23.346V30.25H28.7305C29.2332 30.25 29.657 30.4225 30.002 30.7675C30.3467 31.1122 30.519 31.5293 30.519 32.019V43.2305C30.519 43.7205 30.3467 44.1378 30.002 44.4825C29.657 44.8275 29.2332 45 28.7305 45Z" fill="black"/>
</g>
</svg>
