<svg width="7" height="7" viewBox="0 0 7 7" fill="none" xmlns="http://www.w3.org/2000/svg">
<g clip-path="url(#clip0_201_25825)">
<path d="M3.57354 4.18482L2.86826 3.48787L2.87659 3.47954C3.35973 2.94085 3.70404 2.32165 3.90674 1.66635H4.72032V1.11101H2.77662V0.555664H2.22128V1.11101H0.277588V1.66635H3.37917C3.19313 2.19947 2.8988 2.70761 2.49895 3.15188C2.24072 2.86588 2.02691 2.55212 1.85753 2.22169H1.30219C1.50489 2.67429 1.78256 3.1019 2.12965 3.48787L0.716307 4.88177L1.1106 5.27607L2.49895 3.88771L3.36251 4.75127L3.57354 4.18482ZM5.13682 2.77703H4.58148L3.33196 6.10908H3.88731L4.1983 5.27607H5.51723L5.831 6.10908H6.38634L5.13682 2.77703ZM4.40933 4.72072L4.85915 3.51841L5.30898 4.72072H4.40933Z" fill="white"/>
</g>
<defs>
<clipPath id="clip0_201_25825">
<rect width="6.6641" height="6.6641" fill="white"/>
</clipPath>
</defs>
</svg>
